<?xml version="1.0" encoding="utf-8"?>
<!-- Generator: Adobe Illustrator 16.0.0, SVG Export Plug-In . SVG Version: 6.00 Build 0)  -->
<!DOCTYPE svg PUBLIC "-//W3C//DTD SVG 1.1//EN" "http://www.w3.org/Graphics/SVG/1.1/DTD/svg11.dtd">
<svg version="1.1" id="Capa_1" xmlns="http://www.w3.org/2000/svg" xmlns:xlink="http://www.w3.org/1999/xlink" x="0px" y="0px"
	 width="146px" height="135px" viewBox="0 0 146 135" enable-background="new 0 0 146 135" xml:space="preserve">
<path fill="#D8D8D8" d="M114.768,131.999H137L72.623,3.245L55.212,38.066l-0.697,0.342l0.261,0.53L8.245,131.999h21.243
	L57.28,76.416l3.435,6.867l-24.05,48.716h22.519l12.944-25.888l12.943,25.888h22.312L83.49,83.39l3.485-6.974L114.768,131.999z
	 M83.091,37.961L72.102,60.22L61.653,38.962l10.97-21.938L83.091,37.961z M57.28,62.637l-31.601,63.2h-7.464l39.976-79.95
	l10.47,21.301l-4.524,9.165L57.28,62.637z M55.376,125.837h-8.797l39.97-80.961l40.48,80.961h-8.452l-31.602-63.2L55.376,125.837z
	 M97.485,125.837h-8.604L75.572,99.222l4.455-8.907L97.485,125.837z"/>
</svg>
